<?xml version="1.0" standalone="no"?><!DOCTYPE svg PUBLIC "-//W3C//DTD SVG 1.1//EN" "http://www.w3.org/Graphics/SVG/1.1/DTD/svg11.dtd"><svg t="1551153884057" class="icon" style="" viewBox="0 0 1024 1024" version="1.1" xmlns="http://www.w3.org/2000/svg" p-id="2406" xmlns:xlink="http://www.w3.org/1999/xlink" width="32" height="32"><defs><style type="text/css"></style></defs><path d="M469.038545 907.636364a0.923 1 0 1 0 85.922909 0 0.923 1 0 1 0-85.922909 0Z" p-id="2407" fill="#ffffff" data-spm-anchor-id="a313x.7781069.0.i6" class="selected"></path><path d="M609.885091 69.818182 414.114909 69.818182c-5.259636 0-9.495273 4.514909-9.495273 10.286545L404.619636 82.850909c0 5.678545 4.282182 10.286545 9.495273 10.286545l195.816727 0c5.259636 0 9.495273-4.514909 9.495273-10.286545L619.426909 80.104727C619.426909 74.426182 615.098182 69.818182 609.885091 69.818182z" p-id="2408" fill="#ffffff" data-spm-anchor-id="a313x.7781069.0.i7" class="selected"></path><path d="M705.349818 1024c0 0 85.922909 0 85.922909-93.090909L791.272727 93.090909c0-93.090909-85.922909-93.090909-85.922909-93.090909L318.650182 0C318.650182 0 232.727273 0 232.727273 93.090909l0 837.818182c0 93.090909 85.922909 93.090909 85.922909 93.090909L705.349818 1024zM275.688727 93.090909c0-22.434909 6.423273-32.907636 19.223273-39.842909C303.988364 48.360727 313.995636 46.545455 318.650182 46.545455l386.699636 0c4.654545 0 14.661818 1.815273 23.738182 6.702545C741.888 60.183273 748.311273 70.656 748.311273 93.090909l0 23.272727L275.688727 116.363636 275.688727 93.090909zM275.688727 162.909091l472.622545 0L748.311273 791.272727 275.688727 791.272727 275.688727 162.909091zM275.688727 930.909091l0-93.090909 472.622545 0 0 93.090909c0 22.434909-6.423273 32.907636-19.223273 39.842909C720.011636 975.639273 710.004364 977.454545 705.349818 977.454545L318.650182 977.454545c-4.654545 0-14.661818-1.815273-23.738182-6.702545C282.112 963.816727 275.688727 953.344 275.688727 930.909091z" p-id="2409" fill="#ffffff" data-spm-anchor-id="a313x.7781069.0.i5" class="selected"></path></svg>