<?xml version="1.0" standalone="no"?><!DOCTYPE svg PUBLIC "-//W3C//DTD SVG 1.1//EN" "http://www.w3.org/Graphics/SVG/1.1/DTD/svg11.dtd"><svg t="1551153939108" class="icon" style="" viewBox="0 0 1024 1024" version="1.1" xmlns="http://www.w3.org/2000/svg" p-id="3611" xmlns:xlink="http://www.w3.org/1999/xlink" width="32" height="32"><defs><style type="text/css"></style></defs><path d="M511.662821 473.097992c61.621453 0 111.799272-47.734164 111.799272-106.47194 0-58.737776-50.177819-106.469893-111.799272-106.469893-61.620429 0-111.798249 47.732118-111.798249 106.469893C399.863549 425.363827 450.041368 473.097992 511.662821 473.097992zM511.662821 302.734906c37.07643 0 67.080791 28.605501 67.080791 63.891146 0 35.243689-30.003338 63.893192-67.080791 63.893192-37.011962 0-67.079768-28.649504-67.079768-63.893192C444.583053 331.340407 474.649835 302.734906 511.662821 302.734906z" p-id="3612" data-spm-anchor-id="a313x.7781069.0.i11" class="selected" fill="#ffffff"></path><path d="M824.065923 337.01771c-0.873903 14.937201-1.24434 26.683732-4.234441 49.436946l94.307899-29.740348 0 466.629673-268.320095 74.633814-312.577065-86.776366 0-0.12996-0.217964 0.089028-0.240477-0.089028 0 0.174985-223.597521 71.795163L109.18626 418.245709l92.561116-22.402219c-2.227738-12.797467-3.123131-26.420743-3.123131-40.048111l0-1.702782L64.467779 386.454656l0 553.665958 44.719504-14.456247 223.837998-71.925123 312.795029 86.656639 313.038576-86.700641L958.858886 299.985282 824.065923 337.01771z" p-id="3613" data-spm-anchor-id="a313x.7781069.0.i9" class="selected" fill="#ffffff"></path><path d="M394.186246 668.964938c1.746784 2.487657 3.472078 4.497431 4.869914 5.940292 40.962947 49.434899 82.231863 82.319867 84.022649 83.71668l28.757974 22.797215 28.626991-22.971178c1.790786-1.39886 42.927695-34.674731 83.804684-83.937714 1.397836-1.483794 3.188622-3.5345 4.913916-6.070252 58.453297-75.899644 131.122363-185.866175 147.544381-281.069467 3.164063-21.703301 3.25309-34.848693 3.25309-36.288484 0.547469-71.143317-27.90556-138.002051-80.093153-188.04991-50.528813-48.475038-117.390617-75.15877-188.224896-75.15877-70.550823 0-137.235594 26.683732-187.764408 75.15877-52.472072 50.307779-81.099063 117.520577-80.551594 189.183733 0 1.13587 0.085958 14.326287 3.123131 34.981722C264.112772 489.082034 346.125647 606.862531 394.186246 668.964938zM511.662821 130.451074c123.438357 0 224.493937 98.390891 223.598544 220.62891 0 0 0 11.047614-2.687202 29.389354-14.760169 85.59547-84.503603 191.629435-140.40375 264.037559-0.458441 0.873903-1.353834 1.702782-1.790786 2.139733-38.908148 47.254234-78.716806 79.219249-78.716806 79.219249s-39.806611-31.529087-78.715783-78.782298c-0.436952-0.436952-1.332345-1.309832-1.790786-2.139733C375.256104 572.972677 305.511647 466.502783 290.751478 381.299239c-2.686179-18.297738-2.686179-29.390377-2.686179-29.390377C287.169907 229.673913 388.224464 130.451074 511.662821 130.451074z" p-id="3614" data-spm-anchor-id="a313x.7781069.0.i10" class="selected" fill="#ffffff"></path></svg>